# xmcd
#
# Track frame offsets:
#	150
#	15863
#	33680
#	45038
#	66110
#	85254
#	98932
#	108613
#	130186
#	152854
#	164269
#	180738
#	192200
#	211753
#	222188
#	236824
#	252402
#	273754
#
# Disc length: 3855 seconds
#
# Revision: 0
# Processed by: cddbd v1.5.2PL0 Copyright (c) Steve Scherf et al.
# Submitted via: EasyCDDAExtractor 11.0.0.1
#
DISCID=f00f0d12
DTITLE=Διάφοροι - ΣΥΛΛΟΓΕΣ ΔΟΥΡΕΙΟΣ ΙΠΠΟΣ
DYEAR=2000
DGENRE=ROCK
TTITLE0=Τσακνής Διονύσης_01 Πρός το παρόν
TTITLE1=Κακέπης Μιχάλης_02 Σέ ένα σικέ αγώνα
TTITLE2=Ορχηστρικό_03 Blues minor
TTITLE3=Κακέπης Μιχάλης_04 Άνευ όρων
TTITLE4=Πουλικάκος Δημήτρης_05 Οράματα δε βρίσκω
TTITLE5=Στρόφαλης Μάριος_06 Φάλτσα συγχορδία
TTITLE6=Ορχηστρικό_07 Η καθ' ημάς ανατολή
TTITLE7=Ματσούκα Δήμητρα_08 Η ώρα η εσχάτη
TTITLE8=Κακέπης Μιχάλης_09 Πυροβόλα το φεγγάρι
TTITLE9=Ορχηστρικό_10 Black Venus
TTITLE10=Στρόφαλης Μάριος_11 Πλαστή επιφάνεια
TTITLE11=Κακέπης Μιχάλης_12 Φαύλος κύκλος
TTITLE12=Στρόφαλης Μάριος_13 Με μαύρο χρώμα
TTITLE13=Ορχηστρικό_14 Celtic
TTITLE14=Κακέπης Μιχάλης_15 Ο κύβος ερρίφθη
TTITLE15=Κακέπης Μιχάλης_16 Σαν βροχή
TTITLE16=Στρόφαλης Μάριος_17 Ωραία Ελένη
TTITLE17=Στρόφαλης Μάριος_18 Παράβαση
EXTD=
EXTT0=
EXTT1=
EXTT2=
EXTT3=
EXTT4=
EXTT5=
EXTT6=
EXTT7=
EXTT8=
EXTT9=
EXTT10=
EXTT11=
EXTT12=
EXTT13=
EXTT14=
EXTT15=
EXTT16=
EXTT17=
PLAYORDER=
